<svg width="781" height="380" viewBox="0 0 781 380" fill="none" xmlns="http://www.w3.org/2000/svg">
<path d="M218.4 262.4C247.6 237.6 246.8 177.6 215.2 122C180.8 62.8 123.6 32 87.2 52.8C51.2 73.6 49.2 138.8 83.6 198C106.4 237.6 170 301.2 218.4 262.4ZM9.6 160C9.6 82.8 72 20 149.6 20C226.8 20 289.6 82.8 289.6 160C289.6 210.4 262.8 254.8 222.8 279.2C169.6 321.2 289.6 313.6 289.6 313.6V377.2C231.2 374.8 159.6 344.8 188.8 294.4C176.4 298.4 163.2 300 149.2 300C72 300 9.6 237.6 9.6 160Z" fill="#D8973C"/>
<path d="M462.25 293H443.5H424.75H406H387.25H368.5H349.75H331V274.25V255.5V236.75V218V199.25V180.5V161.75V143V124.25V105.5V86.75H349.75H368.5H387.25H406H424.75H443.5H462.25H481V105.5H499.75V124.25V143V161.75H481V180.5H499.75V199.25V218V236.75V255.5V274.25H481V293H462.25ZM443.5 255.5H462.25V236.75V218V199.25H443.5H424.75H406H387.25H368.5V218V236.75V255.5H387.25H406H424.75H443.5ZM443.5 161.75H462.25V143V124.25H443.5H424.75H406H387.25H368.5V143V161.75H387.25H406H424.75H443.5ZM556 293H537.25V274.25V255.5V236.75V218V199.25V180.5V161.75V143V124.25V105.5V86.75H556H574.75V105.5V124.25V143V161.75V180.5V199.25V218V236.75V255.5V274.25V293H556ZM668.5 293H649.75V274.25V255.5V236.75V218V199.25V180.5V161.75V143V124.25H631H612.25H593.5V105.5V86.75H612.25H631H649.75H668.5H687.25H706H724.75H743.5H762.25V105.5V124.25H743.5H724.75H706H687.25V143V161.75V180.5V199.25V218V236.75V255.5V274.25V293H668.5Z" fill="#273E47"/>
</svg>
